<?xml version="1.0" standalone="no"?>
<!DOCTYPE svg PUBLIC "-//W3C//DTD SVG 20010904//EN"
 "http://www.w3.org/TR/2001/REC-SVG-20010904/DTD/svg10.dtd">
<svg version="1.0" xmlns="http://www.w3.org/2000/svg"
 width="512.000000pt" height="512.000000pt" viewBox="0 0 512.000000 512.000000"
 preserveAspectRatio="xMidYMid meet">
<metadata>
Created by potrace 1.14, written by Peter Selinger 2001-2017
</metadata>
<g transform="translate(0.000000,512.000000) scale(0.100000,-0.100000)"
fill="#000000" stroke="none">
<path d="M213 4409 c-70 -27 -145 -100 -180 -174 l-28 -60 0 -1615 0 -1615 33
-67 c36 -73 87 -124 161 -160 l46 -23 2302 -3 c2301 -2 2302 -2 2357 18 73 28
147 98 183 175 l28 60 0 1615 0 1615 -33 67 c-39 80 -102 139 -178 168 -54 20
-66 20 -2347 19 -2265 0 -2293 0 -2344 -20z m982 -1849 l0 -1715 -450 0 c-509
0 -501 -1 -553 78 l-27 41 -3 1584 -2 1585 21 44 c23 48 57 76 109 91 21 6
205 10 470 9 l435 -2 0 -1715z m3661 1701 c23 -10 54 -36 70 -57 l29 -37 0
-1607 0 -1607 -29 -37 c-16 -21 -48 -47 -71 -57 -42 -18 -97 -19 -1772 -17
l-1728 3 -3 1705 c-1 938 0 1711 3 1718 3 9 359 12 1732 12 1666 0 1729 -1
1769 -19z"/>
<path d="M369 4071 c-31 -25 -32 -83 -1 -114 22 -21 29 -22 280 -25 280 -3
313 -1 343 29 26 26 25 83 -1 109 -19 19 -33 20 -309 20 -267 0 -291 -1 -312
-19z"/>
<path d="M370 3730 c-41 -41 -35 -93 15 -126 19 -13 55 -15 220 -12 193 3 197
3 216 27 28 35 25 85 -7 110 -25 20 -40 21 -225 21 -185 0 -200 -1 -219 -20z"/>
<path d="M369 3211 c-16 -16 -29 -37 -29 -46 0 -24 27 -72 45 -79 9 -3 142 -6
294 -6 266 0 279 1 305 21 37 29 37 89 0 118 -26 20 -39 21 -306 21 l-280 0
-29 -29z"/>
<path d="M390 2887 c-51 -26 -61 -93 -18 -129 18 -16 49 -18 309 -18 276 0
290 1 309 20 26 26 26 80 1 111 l-19 24 -279 3 c-210 2 -284 -1 -303 -11z"/>
<path d="M369 2531 c-29 -23 -31 -81 -4 -111 17 -19 28 -20 312 -20 280 0 294
1 313 20 27 27 27 83 0 110 -19 19 -33 20 -309 20 -267 0 -291 -1 -312 -19z"/>
<path d="M370 2190 c-44 -44 -30 -109 27 -131 16 -6 134 -9 299 -7 251 3 274
4 293 22 30 27 28 86 -2 114 -23 22 -29 22 -310 22 -272 0 -288 -1 -307 -20z"/>
<path d="M384 1858 c-22 -10 -44 -47 -44 -74 0 -9 13 -29 29 -45 l29 -29 280
0 c267 0 280 1 306 21 37 29 37 89 0 118 -26 20 -38 21 -303 20 -168 0 -284
-4 -297 -11z"/>
<path d="M393 1350 c-54 -22 -65 -88 -23 -130 19 -19 34 -20 223 -20 200 0
204 0 225 23 27 29 28 77 3 108 -19 24 -23 24 -213 26 -106 1 -203 -2 -215 -7z"/>
<path d="M1571 4073 c-32 -27 -37 -73 -11 -106 l21 -27 209 0 209 0 20 26 c28
35 26 69 -4 99 -24 25 -25 25 -223 25 -176 0 -202 -2 -221 -17z"/>
<path d="M2252 4067 c-28 -30 -29 -80 -2 -107 19 -19 33 -20 225 -20 192 0
206 1 225 20 28 28 26 81 -3 108 -22 21 -32 22 -223 22 -197 0 -201 0 -222
-23z"/>
<path d="M2935 4065 c-30 -30 -32 -64 -4 -99 l20 -26 203 0 c219 0 237 4 250
55 7 29 -15 79 -39 89 -9 3 -104 6 -211 6 -194 0 -195 0 -219 -25z"/>
<path d="M3620 4070 c-31 -31 -30 -85 2 -112 18 -16 44 -18 222 -18 199 0 203
0 224 23 29 31 28 72 -3 102 -24 25 -25 25 -225 25 -187 0 -201 -1 -220 -20z"/>
<path d="M4305 4065 c-32 -31 -33 -74 -2 -103 22 -21 32 -22 225 -22 189 0
203 1 222 20 27 27 27 83 -2 110 -20 19 -34 20 -220 20 -198 0 -199 0 -223
-25z"/>
<path d="M2031 2969 c-84 -16 -188 -74 -255 -141 -276 -278 -144 -744 239
-843 114 -29 228 -16 343 41 80 39 177 126 188 168 10 43 -3 76 -38 91 -42 17
-68 7 -126 -53 -174 -177 -464 -124 -570 106 -22 46 -26 72 -27 137 0 71 4 88
33 147 40 82 111 149 190 178 47 18 72 21 142 18 103 -5 169 -35 239 -108 55
-57 80 -66 120 -45 62 32 54 92 -23 168 -120 117 -291 168 -455 136z"/>
<path d="M2765 2956 l-25 -25 0 -456 0 -456 25 -24 c30 -30 64 -32 99 -4 l26
20 0 150 0 149 115 0 115 0 120 -160 c144 -192 164 -206 224 -159 48 37 37 70
-63 205 l-89 119 44 16 c65 25 125 73 166 134 113 168 47 396 -141 484 -56 26
-58 26 -323 29 l-268 3 -25 -25z m583 -164 c102 -73 93 -238 -16 -300 -37 -21
-51 -22 -241 -22 l-201 0 0 176 0 175 213 -3 c204 -3 213 -4 245 -26z"/>
<path d="M3795 2957 c-26 -22 -26 -24 -71 -462 -24 -242 -44 -448 -44 -458 0
-26 45 -67 74 -67 14 0 37 10 51 23 26 22 27 28 53 289 15 146 30 269 33 272
3 3 54 -117 113 -267 111 -279 133 -317 181 -317 48 0 70 38 181 317 59 150
110 270 113 267 3 -2 17 -124 32 -270 24 -244 28 -267 49 -289 31 -33 73 -33
105 0 14 13 25 32 25 42 0 10 -20 216 -44 458 -45 438 -45 440 -71 462 -30 27
-62 29 -92 8 -14 -10 -65 -126 -158 -357 -75 -189 -138 -344 -140 -346 -1 -2
-64 151 -139 340 -82 204 -145 350 -158 361 -28 23 -62 21 -93 -6z"/>
</g>
</svg>
